<svg xmlns="http://www.w3.org/2000/svg" width="13.27" height="17.693" viewBox="0 0 13.27 17.693"><defs><style>.a{fill:#fff;}</style></defs><path class="a" d="M14.611,6.635h-.553V4.423a4.423,4.423,0,1,0-8.846,0V6.635H4.659A1.661,1.661,0,0,0,3,8.293v7.741a1.661,1.661,0,0,0,1.659,1.659h9.952a1.661,1.661,0,0,0,1.659-1.659V8.293A1.661,1.661,0,0,0,14.611,6.635ZM6.686,4.423a2.949,2.949,0,1,1,5.9,0V6.635h-5.9Zm3.686,7.9v1.679a.737.737,0,0,1-1.474,0V12.327a1.474,1.474,0,1,1,1.474,0Z" transform="translate(-3)"/></svg>