<svg xmlns="http://www.w3.org/2000/svg" width="13.078" height="11.434" viewBox="0 0 13.078 11.434"><defs><style>.a{fill:#fff;}</style></defs><g transform="translate(0 -32.211)"><g transform="translate(0 32.211)"><g transform="translate(0 0)"><path class="a" d="M1.048,37.092a.269.269,0,0,0,.215-.005l2.126-.966a.273.273,0,0,0,.128-.365.268.268,0,0,0-.351-.131L1.677,36.3a5.258,5.258,0,0,1,10.046.332.272.272,0,0,0,.525-.139,5.8,5.8,0,0,0-11.091-.37L.53,34.56a.274.274,0,0,0-.343-.174.274.274,0,0,0-.174.343.168.168,0,0,0,.014.033L.9,36.94A.271.271,0,0,0,1.048,37.092Z" transform="translate(0 -32.211)"/><path class="a" d="M44.514,290.586a.039.039,0,0,1-.005-.016l-.868-2.178a.271.271,0,0,0-.152-.152.281.281,0,0,0-.215.005l-2.126.966a.273.273,0,0,0,.21.5l.016-.008,1.489-.678A5.261,5.261,0,0,1,32.81,288.7a.272.272,0,0,0-.525.139,5.8,5.8,0,0,0,11.091.37L44,290.771a.272.272,0,0,0,.512-.185Z" transform="translate(-31.452 -281.686)"/></g></g></g></svg>