<svg xmlns="http://www.w3.org/2000/svg" width="15.816" height="20" viewBox="0 0 15.816 20"><defs><style>.a{fill:#fff;}</style></defs><g transform="translate(-51.683)"><path class="a" d="M67.493,17.989,66.431,4.872a.7.7,0,0,0-.7-.641H63.653V4.062a4.062,4.062,0,0,0-8.125,0v.168H53.445a.7.7,0,0,0-.7.641L51.689,17.989A1.86,1.86,0,0,0,53.543,20H65.638a1.86,1.86,0,0,0,1.854-2.011ZM56.924,4.062a2.667,2.667,0,1,1,5.334,0v.168H56.924ZM65.98,18.455a.46.46,0,0,1-.342.15H53.543a.465.465,0,0,1-.463-.5L54.089,5.626h1.439V9.084a.7.7,0,1,0,1.4,0V5.626h5.334V9.084a.7.7,0,1,0,1.4,0V5.626h1.439L66.1,18.1a.46.46,0,0,1-.121.353Z"/></g></svg>