<svg xmlns="http://www.w3.org/2000/svg" width="15.962" height="20.185" viewBox="0 0 15.962 20.185"><defs><style>.a{fill:#fff;}</style></defs><g transform="translate(-51.683)"><path class="a" d="M67.639,18.156,66.568,4.917a.7.7,0,0,0-.7-.647h-2.1V4.1a4.1,4.1,0,0,0-8.2,0v.17h-2.1a.7.7,0,0,0-.7.647L51.689,18.156a1.878,1.878,0,0,0,1.872,2.029H65.768a1.878,1.878,0,0,0,1.872-2.029ZM56.972,4.1a2.692,2.692,0,0,1,5.383,0v.17H56.972Zm9.141,14.526a.465.465,0,0,1-.345.151H53.561a.469.469,0,0,1-.468-.507L54.111,5.678h1.453V9.169a.7.7,0,0,0,1.408,0V5.678h5.383V9.169a.7.7,0,1,0,1.408,0V5.678h1.453L66.235,18.27a.465.465,0,0,1-.122.356Z" transform="translate(0)"/></g></svg>